<svg xmlns="http://www.w3.org/2000/svg" version="1.1" xmlns:xlink="http://www.w3.org/1999/xlink" xmlns:svgjs="http://svgjs.com/svgjs" width="1440" height="560" preserveAspectRatio="none" viewBox="0 0 1440 560"><g mask="url(&quot;#SvgjsMask1018&quot;)" fill="none"><rect width="1440" height="560" x="0" y="0" fill="#0e2a47"></rect><path d="M1157.8798716235428 273.29979737379267L1238.2142465202403 296.33530869323886 1232.6003260510608 164.31599068846975z" fill="rgba(28, 83, 142, 0.4)" class="triangle-float3"></path><path d="M819.4868440256752 437.9669777651512L884.608482428449 390.653337972149 781.0772035375587 316.6277002644896z" fill="rgba(28, 83, 142, 0.4)" class="triangle-float1"></path><path d="M1381.7167290172372 29.559724398362178L1338.1223429986078 142.80428334238715 1443.1653302184602 128.0414542388764z" fill="rgba(28, 83, 142, 0.4)" class="triangle-float3"></path><path d="M679.6813366315188 261.7153372251508L760.7141612565226 402.3777214315098 833.8007274130312 280.7412489417789z" fill="rgba(28, 83, 142, 0.4)" class="triangle-float1"></path><path d="M1025.430361570762 506.3321015634104L985.651267714552 561.0833271598239 1087.6676530372772 593.3763551459323z" fill="rgba(28, 83, 142, 0.4)" class="triangle-float3"></path><path d="M1083.242626136947 273.0389312568852L1004.722448381735 182.7117994379116 992.9154943179733 351.559109012097z" fill="rgba(28, 83, 142, 0.4)" class="triangle-float2"></path><path d="M157.99671125030127 206.98931808935083L-19.281323039320966 241.2733763266199 82.17641526494126 362.18600044720756z" fill="rgba(28, 83, 142, 0.4)" class="triangle-float1"></path><path d="M1323.7634455497296 194.57121865288684L1368.4937703394824 324.88081115929515 1449.0806795609935 235.37998124648053z" fill="rgba(28, 83, 142, 0.4)" class="triangle-float1"></path><path d="M1065.479804824338 461.19767901636743L1084.447435216155 385.12266868651255 960.8511045254642 394.7087282637144z" fill="rgba(28, 83, 142, 0.4)" class="triangle-float2"></path><path d="M635.5786304356742 456.931518143953L717.5788641531094 551.2619963972295 729.9091086889507 374.9312844265177z" fill="rgba(28, 83, 142, 0.4)" class="triangle-float1"></path><path d="M740.0035473667474-55.75326361919272L703.7054975048177 100.79006152256335 838.73777656396 62.070178573858506z" fill="rgba(28, 83, 142, 0.4)" class="triangle-float2"></path><path d="M98.24408908505451 337.0375451064767L-18.71655898654403 269.36158027152254-20.77810604700963 387.467532265602z" fill="rgba(28, 83, 142, 0.4)" class="triangle-float3"></path><path d="M684.4362547198722 217.42197926087727L609.0205009544791 188.47258371525606 603.3042845187439 316.0709121361564z" fill="rgba(28, 83, 142, 0.4)" class="triangle-float1"></path><path d="M551.8322831290892 91.32749969816399L568.7584558011204 4.249890103259162 429.6789550727476 22.399435892664854z" fill="rgba(28, 83, 142, 0.4)" class="triangle-float2"></path><path d="M1191.6999530908552 499.7547197727613L1202.3693277634538 586.6498032762631 1278.595036594357 489.08534510016256z" fill="rgba(28, 83, 142, 0.4)" class="triangle-float1"></path><path d="M1130.8342463749325 115.82056996147924L1101.4086258714726 181.9115957072 1215.2579747417838 193.00451358952944z" fill="rgba(28, 83, 142, 0.4)" class="triangle-float2"></path><path d="M1094.5959796114305 303.69407488812277L1056.0030972113273 220.9313714986901 951.1554833272298 320.2020467935611z" fill="rgba(28, 83, 142, 0.4)" class="triangle-float1"></path></g><defs><mask id="SvgjsMask1018"><rect width="1440" height="560" fill="#ffffff"></rect></mask></defs></svg>