<svg xmlns="http://www.w3.org/2000/svg" version="1.1" xmlns:xlink="http://www.w3.org/1999/xlink" xmlns:svgjs="http://svgjs.com/svgjs" width="1440" height="560" preserveAspectRatio="none" viewBox="0 0 1440 560"><g mask="url(&quot;#SvgjsMask1024&quot;)" fill="none"><rect width="1440" height="560" x="0" y="0" fill="#0e2a47"></rect><path d="M192.44 370.7 a96.8 96.8 0 1 0 193.6 0 a96.8 96.8 0 1 0 -193.6 0z" fill="rgba(28, 83, 142, 0.4)" class="triangle-float3"></path><path d="M546.26 416.1 a179.77 179.77 0 1 0 359.54 0 a179.77 179.77 0 1 0 -359.54 0z" fill="rgba(28, 83, 142, 0.4)" class="triangle-float3"></path><path d="M260.23 482.12 a99.28 99.28 0 1 0 198.56 0 a99.28 99.28 0 1 0 -198.56 0z" fill="rgba(28, 83, 142, 0.4)" class="triangle-float2"></path><path d="M1232.91 186.63 a141.58 141.58 0 1 0 283.16 0 a141.58 141.58 0 1 0 -283.16 0z" fill="rgba(28, 83, 142, 0.4)" class="triangle-float3"></path><path d="M1103.12 435.38 a114.33 114.33 0 1 0 228.66 0 a114.33 114.33 0 1 0 -228.66 0z" fill="rgba(28, 83, 142, 0.4)" class="triangle-float1"></path><path d="M37.37 73.71 a152.5 152.5 0 1 0 305 0 a152.5 152.5 0 1 0 -305 0z" fill="rgba(28, 83, 142, 0.4)" class="triangle-float2"></path><path d="M1259.81 299.45 a101.91 101.91 0 1 0 203.82 0 a101.91 101.91 0 1 0 -203.82 0z" fill="rgba(28, 83, 142, 0.4)" class="triangle-float3"></path><path d="M982.91 125.58 a185.64 185.64 0 1 0 371.28 0 a185.64 185.64 0 1 0 -371.28 0z" fill="rgba(28, 83, 142, 0.4)" class="triangle-float1"></path><path d="M-65.03 204.08 a162.03 162.03 0 1 0 324.06 0 a162.03 162.03 0 1 0 -324.06 0z" fill="rgba(28, 83, 142, 0.4)" class="triangle-float3"></path><path d="M1253.98 2.62 a136.27 136.27 0 1 0 272.54 0 a136.27 136.27 0 1 0 -272.54 0z" fill="rgba(28, 83, 142, 0.4)" class="triangle-float3"></path><path d="M1008.47 426.05 a127.56 127.56 0 1 0 255.12 0 a127.56 127.56 0 1 0 -255.12 0z" fill="rgba(28, 83, 142, 0.4)" class="triangle-float1"></path><path d="M78.37 299.57 a122.57 122.57 0 1 0 245.14 0 a122.57 122.57 0 1 0 -245.14 0z" fill="rgba(28, 83, 142, 0.4)" class="triangle-float1"></path><path d="M1271.78 32 a112.27 112.27 0 1 0 224.54 0 a112.27 112.27 0 1 0 -224.54 0z" fill="rgba(28, 83, 142, 0.4)" class="triangle-float2"></path></g><defs><mask id="SvgjsMask1024"><rect width="1440" height="560" fill="#ffffff"></rect></mask></defs></svg>