<svg xmlns="http://www.w3.org/2000/svg" version="1.1" xmlns:xlink="http://www.w3.org/1999/xlink" xmlns:svgjs="http://svgjs.com/svgjs" width="1440" height="560" preserveAspectRatio="none" viewBox="0 0 1440 560"><g mask="url(&quot;#SvgjsMask1026&quot;)" fill="none"><rect width="1440" height="560" x="0" y="0" fill="#0e2a47"></rect><path d="M275.3603733717229 340.5714668822063L138.03955833818222 323.7105909054841 121.17868236145995 461.03140593902475 258.4994973950007 477.89228191574705z" fill="rgba(28, 83, 142, 0.4)" class="triangle-float3"></path><path d="M1306.8401405687734 144.6963124281826L1279.6249777684616 246.26468273520487 1381.193348075484 273.4798455355167 1408.4085108757956 171.91147522849445z" fill="rgba(28, 83, 142, 0.4)" class="triangle-float3"></path><path d="M551.3527527131288 214.3077976607772L603.401588586012 336.927170790281 726.0209617155158 284.87833491739775 673.9721258426326 162.25896178789395z" fill="rgba(28, 83, 142, 0.4)" class="triangle-float3"></path><path d="M1417.2608738939555 76.94569418939713L1295.1982836044763-18.420053137951413 1199.8325362771277 103.64253715152783 1321.895126566607 199.00828447887636z" fill="rgba(28, 83, 142, 0.4)" class="triangle-float1"></path><path d="M200.80780636760403 417.0815691233212L230.40957686239446 320.25854058866923 133.5865483277425 290.6567700938788 103.98477783295206 387.4797986285307z" fill="rgba(28, 83, 142, 0.4)" class="triangle-float2"></path><path d="M868.1165942001605 274.568019145969L834.1186457180596 373.3052309463489 932.8558575184395 407.3031794284499 966.8538060005404 308.56596762807z" fill="rgba(28, 83, 142, 0.4)" class="triangle-float3"></path><path d="M331.7956865423272 110.13841535340903L404.9004413063541 26.04101505523296 320.80304100817796-47.063739708793904 247.69828624415112 37.033660589382166z" fill="rgba(28, 83, 142, 0.4)" class="triangle-float2"></path><path d="M138.00413221645164 357.98081072553447L38.28350701538059 293.2214795215559-26.475824188597983 392.94210472262694 73.24480101247308 457.70143592660554z" fill="rgba(28, 83, 142, 0.4)" class="triangle-float2"></path><path d="M872.3205276978305 310.13727464096166L962.8056696237064 306.97746385734 959.6458588400848 216.492321931464 869.1607169142088 219.65213271508566z" fill="rgba(28, 83, 142, 0.4)" class="triangle-float3"></path><path d="M1326.4488418706426 125.0810375726403L1332.987583555798 31.572674994383377 1239.479220977541 25.03393330922806 1232.9404792923856 118.54229588748498z" fill="rgba(28, 83, 142, 0.4)" class="triangle-float1"></path><path d="M279.07340976646947 571.973429568405L412.6476673101266 672.6288523299014 513.303090071623 539.0545947862443 379.7288325279659 438.3991720247478z" fill="rgba(28, 83, 142, 0.4)" class="triangle-float3"></path><path d="M432.2903432839631 137.95763994494072L347.9864600778884 113.78389043404935 323.81271056699705 198.08777364012406 408.11659377307177 222.2615231510154z" fill="rgba(28, 83, 142, 0.4)" class="triangle-float1"></path><path d="M58.392763662943175 198.79684462866908L10.964046672238105 329.1061735943351 141.2733756379041 376.53489058504016 188.70209262860917 246.22556161937416z" fill="rgba(28, 83, 142, 0.4)" class="triangle-float2"></path></g><defs><mask id="SvgjsMask1026"><rect width="1440" height="560" fill="#ffffff"></rect></mask></defs></svg>